Input #0, mov,mp4,m4a,3gp,3g2,mj2, from '/Volumes/AIGC/AI-CUT/projects/0622/结果/文案3/auto-edit/edit/visual_pre_subtitles.mp4':
  Metadata:
    major_brand     : isom
    minor_version   : 512
    compatible_brands: isomiso2avc1mp41
    encoder         : Lavf62.3.100
  Duration: 00:00:28.23, start: 0.000000, bitrate: 3757 kb/s
  Stream #0:0[0x1](und): Video: h264 (High) (avc1 / 0x31637661), yuv420p(tv, bt709, progressive), 1280x720 [SAR 1:1 DAR 16:9], 3754 kb/s, 30 fps, 30 tbr, 15360 tbn (default)
    Metadata:
      handler_name    : VideoHandler
      vendor_id       : [0][0][0][0]
      encoder         : Lavc62.11.100 libx264
Input #1, mp3, from '/Volumes/AIGC/AI-CUT/projects/0622/素材/音频/文案3-音频.mp3':
  Metadata:
    AIGC            : {"Label":"1","ContentProducer":"MiniMax","ProduceID":"0687f404a247d75489605e6fee3136b3","ReservedCode1":"{\"SecurityData\":{\"Type\":\"TC260PG\",\"Version\":1,\"PubSD\":[{\"Type\":\"DS\",\"AlgID\":\"1.2.156.10197.1.501\",\"TBSData\":{\"Type\":\"LabelMataD
    encoder         : Lavf59.27.100
  Duration: 00:00:28.15, start: 0.016531, bitrate: 128 kb/s
  Stream #1:0: Audio: mp3 (mp3float), 32000 Hz, mono, fltp, 128 kb/s, start 0.016531
[Parsed_subtitles_0 @ 0x92b004e40] libass API version: 0x1704000
[Parsed_subtitles_0 @ 0x92b004e40] libass source: tarball: 0.17.4
[Parsed_subtitles_0 @ 0x92b004e40] Shaper: FriBidi 1.0.16 (SIMPLE) HarfBuzz-ng 12.1.0 (COMPLEX)
[Parsed_subtitles_0 @ 0x92b004e40] Using font provider coretext
Stream mapping:
  Stream #0:0 -> #0:0 (h264 (native) -> h264 (libx264))
  Stream #1:0 -> #0:1 (mp3 (mp3float) -> aac (native))
Press [q] to stop, [?] for help
[Parsed_subtitles_0 @ 0x92b300780] libass API version: 0x1704000
[Parsed_subtitles_0 @ 0x92b300780] libass source: tarball: 0.17.4
[Parsed_subtitles_0 @ 0x92b300780] Shaper: FriBidi 1.0.16 (SIMPLE) HarfBuzz-ng 12.1.0 (COMPLEX)
[Parsed_subtitles_0 @ 0x92b300780] Using font provider coretext
[libx264 @ 0x92ac45180] using SAR=1/1
[libx264 @ 0x92ac45180] using cpu capabilities: ARMv8 NEON DotProd I8MM
[libx264 @ 0x92ac45180] profile High, level 3.1, 4:2:0, 8-bit
[libx264 @ 0x92ac45180] 264 - core 165 r3222 b35605a - H.264/MPEG-4 AVC codec - Copyleft 2003-2025 - http://www.videolan.org/x264.html - options: cabac=1 ref=1 deblock=1:0:0 analyse=0x3:0x113 me=hex subme=2 psy=1 psy_rd=1.00:0.00 mixed_ref=0 me_range=16 chroma_me=1 trellis=0 8x8dct=1 cqm=0 deadzone=21,11 fast_pskip=1 chroma_qp_offset=0 threads=15 lookahead_threads=5 sliced_threads=0 nr=0 decimate=1 interlaced=0 bluray_compat=0 constrained_intra=0 bframes=3 b_pyramid=2 b_adapt=1 b_bias=0 direct=1 weightb=1 open_gop=0 weightp=1 keyint=250 keyint_min=25 scenecut=40 intra_refresh=0 rc_lookahead=10 rc=crf mbtree=1 crf=18.0 qcomp=0.60 qpmin=0 qpmax=69 qpstep=4 ip_ratio=1.40 aq=1:1.00
Output #0, mp4, to '/Volumes/AIGC/AI-CUT/projects/0622/结果/文案3/文案3_final.mp4':
  Metadata:
    major_brand     : isom
    minor_version   : 512
    compatible_brands: isomiso2avc1mp41
    encoder         : Lavf62.3.100
  Stream #0:0(und): Video: h264 (avc1 / 0x31637661), yuv420p(tv, bt709, progressive), 1280x720 [SAR 1:1 DAR 16:9], q=2-31, 30 fps, 15360 tbn (default)
    Metadata:
      encoder         : Lavc62.11.100 libx264
      handler_name    : VideoHandler
      vendor_id       : [0][0][0][0]
    Side data:
      cpb: bitrate max/min/avg: 0/0/0 buffer size: 0 vbv_delay: N/A
  Stream #0:1: Audio: aac (LC) (mp4a / 0x6134706D), 32000 Hz, mono, fltp, 192 kb/s
    Metadata:
      encoder         : Lavc62.11.100 aac
[Parsed_subtitles_0 @ 0x92b300780] fontselect: (Arial Unicode MS, 400, 0) -> /System/Library/Fonts/Supplemental/Arial Unicode.ttf, -1, ArialUnicodeMS
frame=  139 fps=0.0 q=24.0 size=    2304KiB time=00:00:04.56 bitrate=4133.2kbits/s speed=9.03x elapsed=0:00:00.50    
frame=  249 fps=247 q=24.0 size=    3840KiB time=00:00:08.23 bitrate=3820.8kbits/s speed=8.16x elapsed=0:00:01.00    
frame=  370 fps=244 q=24.0 size=    5632KiB time=00:00:12.26 bitrate=3761.2kbits/s speed= 8.1x elapsed=0:00:01.51    
frame=  555 fps=276 q=24.0 size=    8192KiB time=00:00:19.71 bitrate=3404.5kbits/s speed=9.79x elapsed=0:00:02.01    
frame=  713 fps=283 q=24.0 size=   10496KiB time=00:00:24.96 bitrate=3444.9kbits/s speed=9.91x elapsed=0:00:02.51    
[mp4 @ 0x92b058780] Starting second pass: moving the moov atom to the beginning of the file
[out#0/mp4 @ 0x92b004a80] video:12076KiB audio:468KiB subtitle:0KiB other streams:0KiB global headers:0KiB muxing overhead: 0.172713%
frame=  844 fps=296 q=-1.0 Lsize=   12566KiB time=00:00:28.06 bitrate=3667.6kbits/s speed=9.86x elapsed=0:00:02.84    
[libx264 @ 0x92ac45180] frame I:9     Avg QP:15.76  size: 57223
[libx264 @ 0x92ac45180] frame P:302   Avg QP:18.92  size: 26642
[libx264 @ 0x92ac45180] frame B:533   Avg QP:20.74  size:  7137
[libx264 @ 0x92ac45180] consecutive B-frames:  9.5% 15.2% 11.4% 64.0%
[libx264 @ 0x92ac45180] mb I  I16..4: 16.9% 46.6% 36.5%
[libx264 @ 0x92ac45180] mb P  I16..4: 12.1% 33.4%  7.4%  P16..4: 18.5% 10.8%  6.1%  0.0%  0.0%    skip:11.7%
[libx264 @ 0x92ac45180] mb B  I16..4:  2.1%  3.3%  0.6%  B16..8: 20.7%  8.2%  1.3%  direct: 5.8%  skip:58.0%  L0:39.9% L1:44.7% BI:15.4%
[libx264 @ 0x92ac45180] 8x8 transform intra:61.1% inter:21.5%
[libx264 @ 0x92ac45180] coded y,uvDC,uvAC intra: 50.8% 36.7% 6.4% inter: 9.8% 9.6% 0.5%
[libx264 @ 0x92ac45180] i16 v,h,dc,p: 33% 37% 13% 17%
[libx264 @ 0x92ac45180] i8 v,h,dc,ddl,ddr,vr,hd,vl,hu: 21% 37% 18%  2%  5%  3%  6%  4%  4%
[libx264 @ 0x92ac45180] i4 v,h,dc,ddl,ddr,vr,hd,vl,hu: 22% 36% 14%  2%  7%  4%  7%  3%  4%
[libx264 @ 0x92ac45180] i8c dc,h,v,p: 52% 28% 17%  3%
[libx264 @ 0x92ac45180] Weighted P-Frames: Y:2.6% UV:1.3%
[libx264 @ 0x92ac45180] kb/s:3516.09
[aac @ 0x92ad78380] Qavg: 65472.609
